# xmcd
#
# Track frame offsets:
#	150
#	19238
#	38300
#	54001
#	83417
#	103154
#	141462
#	169827
#
# Disc length: 2728 seconds
#
# Revision: 1
# Processed by: cddbd v1.5PL3 Copyright (c) Steve Scherf et al.
# Submitted via: EasyCDDAExtractor 6.5.0.1
#
DISCID=580aa608
DTITLE=Enrique Iglesias - Addicted Remixes
DYEAR=1900
DGENRE=
TTITLE0=Addicted(Radio Edit)
TTITLE1=Adicto(Radio Edit)
TTITLE2=Addicted(Metro Radio Edit)
TTITLE3=Addicted(Metro Extended Mix)
TTITLE4=Addicted(Scumfrog Remix)
TTITLE5=Addicted(Fernando Garibay Radio Edit)
TTITLE6=Addicted(Fernando Garibay Extended Mix)
TTITLE7=Addicted(Glam As You Mix)
EXTD=
EXTT0=
EXTT1=
EXTT2=
EXTT3=
EXTT4=
EXTT5=
EXTT6=
EXTT7=
PLAYORDER=
